<?xml version="1.0" encoding="UTF-8"?>
<svg width="10px" height="18px" viewBox="0 0 10 18" version="1.1" xmlns="http://www.w3.org/2000/svg" xmlns:xlink="http://www.w3.org/1999/xlink">
    <!-- Generator: Sketch 50.2 (55047) - http://www.bohemiancoding.com/sketch -->
    <title>Group</title>
    <desc>Created with Sketch.</desc>
    <defs></defs>
    <g id="Page-1" stroke="none" stroke-width="1" fill="none" fill-rule="evenodd">
        <g id="Artboard" transform="translate(-1447.000000, -963.000000)" fill="#FFFFFF">
            <g id="Group" transform="translate(1447.000000, 963.000000)">
                <path d="M5.95303947,0.2052 C4.57922368,-0.239719626 2.97659211,0.2052 1.83172368,1.09503925 C0.686855263,1.9848785 1.31578947e-05,3.31976523 1.31578947e-05,4.87711178 C1.31578947e-05,5.54449121 0.457907895,5.98953869 1.14488158,5.98953869 C1.83172368,5.98953869 2.28975,5.54461907 2.28975,4.87711178 C2.28975,4.20973234 2.51869737,3.31976523 3.20553947,2.87484561 C3.89238158,2.42992598 4.57935526,2.20746617 5.49514474,2.42992598 C6.64001316,2.65238579 7.32685526,3.5423529 7.55580263,4.43219215 C7.78475,5.54461907 7.55580263,6.43445832 6.64001316,7.10196561 C4.80830263,8.43685234 3.89238158,10.4391185 3.89238158,12.4413847 C3.89238158,13.1087641 4.35027632,13.5538116 5.03725,13.5538116 C5.72409211,13.5538116 6.01646053,13.2185877 5.95303947,12.4413847 C5.84435526,11.1105892 6.86882895,9.77161121 8.01369737,8.88177196 C9.61646053,7.54688523 10.3033026,5.76707888 9.84540789,3.98727252 C9.38738158,1.98500636 7.78475,0.650119626 5.95303947,0.2052" id="Fill-1"></path>
                <path d="M3.57142857,16.3539574 C3.57142857,15.672383 4.14090226,15.12 4.84340226,15.12 C5.54590226,15.12 6.11537594,15.672383 6.11537594,16.3539574 C6.11537594,17.0355319 5.54590226,17.5880426 4.84340226,17.5880426 C4.14090226,17.5880426 3.57142857,17.0355319 3.57142857,16.3539574" id="Fill-4"></path>
            </g>
        </g>
    </g>
</svg>